<svg xmlns="http://www.w3.org/2000/svg" xmlns:xlink="http://www.w3.org/1999/xlink" version="1.1" width="18.007876pt" height="22.030318pt" viewBox="0 0 18.007876 22.030318">
<path transform="matrix(1,0,0,-1,.003944,22.031416)" d="M13.410881 21.183884 13.411869 20.358366C16.166516 20.120617 17.98616 18.05352 17.98912 14.883533L17.99998 5.604713C18.003931 2.148544 16.032238 .022013 12.8718 .016508L5.151884 .005503C2.011194 .001099 .014817 2.178265 .010867 5.644339L.000007 14.814189C-.003943 18.00509 1.751526 20.066683 4.506171 20.345158L4.505184 21.170676C4.504196 21.65498 4.830015 22.019309 5.264439 22.019309 5.698864 22.020409 6.024681 21.65718 6.025669 21.172877L6.026656 20.402394 11.891384 20.4112 11.890396 21.181683C11.889409 21.665987 12.215227 22.029215 12.649652 22.030316 13.074203 22.031416 13.409894 21.668189 13.410881 21.183884ZM1.521464 14.474081 16.46961 14.496094V14.881336C16.427155 17.24782 15.348991 18.489399 13.413829 18.674315L13.414816 17.826785C13.414816 17.353487 13.080112 16.978152 12.65556 16.978152 12.221136 16.97705 11.894331 17.351286 11.894331 17.824582L11.893344 18.71614 6.028616 18.707337 6.029603 17.816878C6.029603 17.34248 5.704772 16.968245 5.270348 16.968245 4.835924 16.967144 4.509119 17.340279 4.509119 17.814677L4.508131 18.662207C2.582842 18.449774 1.517515 17.203793 1.520477 14.816395L1.521464 14.474081ZM12.239894 9.471444V9.459336C12.249767 8.953019 12.624952 8.568878 13.08011 8.579885 13.524407 8.591992 13.878859 9.011355 13.868985 9.517673 13.848251 10.001977 13.491826 10.397125 13.048515 10.396025 12.594345 10.385017 12.238907 9.977762 12.239894 9.471444ZM13.055441 4.529337C12.601271 4.540344 12.234972 4.957504 12.233985 5.463823 12.224112 5.97014 12.588435 6.389503 13.042606 6.401611H13.05248C13.516523 6.401611 13.892695 5.984449 13.892695 5.467125 13.893682 4.9498 13.518498 4.530437 13.055441 4.529337ZM8.172114 9.453838C8.191861 8.94752 8.568033 8.552373 9.022204 8.574387 9.466501 8.597501 9.820952 9.015763 9.801206 9.522081 9.790345 10.017392 9.425034 10.402634 8.980737 10.401533 8.526566 10.379519 8.171127 9.960155 8.172114 9.453838ZM9.026138 4.578873C8.571968 4.556858 8.196783 4.952007 8.176049 5.458324 8.176049 5.964642 8.5305 6.382904 8.984671 6.406019 9.428968 6.40712 9.795267 6.021877 9.80514 5.527668 9.825874 5.020248 9.470436 4.601986 9.026138 4.578873ZM4.104305 9.41531C4.124051 8.908993 4.500223 8.512744 4.954394 8.535858 5.398692 8.557872 5.753142 8.977235 5.732408 9.483553 5.722535 9.978864 5.357224 10.364105 4.911939 10.363005 4.457768 10.34099 4.103317 9.921627 4.104305 9.41531ZM4.958361 4.573364C4.50419 4.550249 4.129005 4.946499 4.108272 5.452816 4.107285 5.959133 4.462722 6.378496 4.916893 6.400511 5.361191 6.401611 5.727489 6.016369 5.737363 5.521059 5.758097 5.014742 5.403646 4.595379 4.958361 4.573364Z" fill="#030229" fill-opacity=".4" fill-rule="evenodd"/>
</svg>
