<svg xmlns="http://www.w3.org/2000/svg" xmlns:xlink="http://www.w3.org/1999/xlink" version="1.1" width="45.107484pt" height="44.193666pt" viewBox="0 0 45.107484 44.193666">
<path transform="matrix(1,0,0,-1,.551758,44.212038)" d="M21.960585 44.19353C16.746266 44.19281 11.70228 42.28704 7.730905 38.817129 3.759529 35.347215 1.119843 30.539526 .284038 25.25407-.551767 19.968615 .470836 14.550198 3.16892 9.968075 5.867003 5.385952 10.064554 1.939045 15.010708 .243946 16.108883 .034508 16.579529 .727261 16.579529 1.323353V5.157665C10.476816 3.804379 9.190383 8.186451 9.190383 8.186451 8.761234 9.567398 7.858014 10.741131 6.648892 11.489113 4.65649 12.87462 6.805775 12.858507 6.805775 12.858507 7.501711 12.757549 8.165977 12.494596 8.747835 12.089733 9.329694 11.684868 9.813756 11.148808 10.163051 10.52248 10.770724 9.403225 11.786366 8.57761 12.986666 8.227161 14.186965 7.876713 15.473658 8.030121 16.56384 8.653656 16.652419 9.796745 17.143157 10.867641 17.944403 11.666328 13.081059 12.246307 7.951014 14.179573 7.951014 22.814829 7.915446 25.057587 8.724797 27.227786 10.210116 28.872395 9.537816 30.815014 9.616422 32.94841 10.42975 34.8333 10.42975 34.8333 12.265271 35.445505 16.469712 32.52949 20.064623 33.536485 23.856545 33.536485 27.451457 32.52949 31.640208 35.445505 33.475728 34.8333 33.475728 34.8333 34.289056 32.94841 34.367666 30.815014 33.695363 28.872395 35.180685 27.227786 35.990034 25.057587 35.954465 22.814829 35.954465 14.147354 30.82442 12.246307 25.9297 11.682438 26.454031 11.136673 26.85836 10.481846 27.11545 9.76207 27.37254 9.042294 27.476414 8.274292 27.420079 7.509808V1.323353C27.420079 .582268 27.812285 .018398 28.9889 .243946 33.941549 1.941162 38.143449 5.394703 40.84111 9.98526 43.538774 14.575819 44.555738 20.003125 43.70964 25.293944 42.863546 30.584763 40.209733 35.393018 36.22409 38.856477 32.23845 42.319936 27.181685 44.21205 21.960585 44.19353Z" fill="#ffffff" fill-rule="evenodd"/>
</svg>
