<svg xmlns="http://www.w3.org/2000/svg" xmlns:xlink="http://www.w3.org/1999/xlink" version="1.1" width="20pt" height="17.619868pt" viewBox="0 0 20 17.619868">
<path transform="matrix(1,0,0,-1,0,17.619868)" d="M19.787234 10.418795C19.651837 10.273945 19.468087 10.191174 19.274662 10.191174 18.558995 10.191174 17.978724 9.570392 17.978724 8.815107 17.978724 8.054649 18.552226 7.436971 19.261122 7.428694 19.660542 7.424555 20 7.126579 20 6.699275V4.04543C20 1.811649 18.307545 0 16.218569 0H13.065764C12.739845 0 12.475822 .282455 12.475822 .631128V2.865945C12.475822 3.300492 12.156673 3.641922 11.750484 3.641922 11.353965 3.641922 11.025146 3.300492 11.025146 2.865945V.631128C11.025146 .282455 10.761122 0 10.436171 0H3.781431C1.702128 0 0 1.810615 0 4.04543V6.699275C0 7.126579 .339458 7.424555 .738878 7.428694 1.448743 7.436971 2.021277 8.054649 2.021277 8.815107 2.021277 9.549699 1.460348 10.108403 .725339 10.108403 .531915 10.108403 .348162 10.191174 .212766 10.336023 .077369 10.480873 0 10.677454 0 10.88438V13.564091C0 15.794767 1.705996 17.619868 3.791102 17.619868H10.436171C10.761122 17.619868 11.025146 17.337412 11.025146 16.988739V14.340068C11.025146 13.915867 11.353965 13.564091 11.750484 13.564091 12.156673 13.564091 12.475822 13.915867 12.475822 14.340068V16.988739C12.475822 17.337412 12.739845 17.619868 13.065764 17.619868H16.218569C18.307545 17.619868 20 15.809253 20 13.574437V10.967152C20 10.760224 19.92263 10.563643 19.787234 10.418795ZM11.750485 5.649117C12.156674 5.649117 12.475823 6.000894 12.475823 6.425096V10.563643C12.475823 10.987844 12.156674 11.339621 11.750485 11.339621 11.353967 11.339621 11.025146 10.987844 11.025146 10.563643V6.425096C11.025146 6.000894 11.353967 5.649117 11.750485 5.649117Z" fill="#030229" fill-rule="evenodd"/>
</svg>
