<svg xmlns="http://www.w3.org/2000/svg" xmlns:xlink="http://www.w3.org/1999/xlink" version="1.1" width="18.000384pt" height="23.003598pt" viewBox="0 0 18.000384 23.003598">
<path transform="matrix(1,0,0,-1,.000191,23.003598)" d="M16.000002 9.678132V13.802517C16.000002 17.502503 13.815001 20.619368 10.855 21.556729 10.562 22.405528 9.846001 23.003598 9.000001 23.003598 8.154001 23.003598 7.438002 22.405528 7.145001 21.556729 4.185001 20.618218 2.000001 17.502503 2.000001 13.802517V9.678132L.293001 7.714852C.199958 7.608228 .126171 7.481492 .075885 7.341938 .0256 7.202384-.000189 7.05277 .000001 6.901707V4.601437C.000001 4.296402 .105358 4.00386 .292894 3.788168 .480431 3.572475 .734785 3.451302 1.000001 3.451302H17.000002C17.265219 3.451302 17.519574 3.572475 17.70711 3.788168 17.894646 4.00386 18.000002 4.296402 18.000002 4.601437V6.901707C18.000193 7.05277 17.974404 7.202384 17.924118 7.341938 17.873833 7.481492 17.800045 7.608228 17.707003 7.714852L16.000002 9.678132ZM16.000002 5.751572H2.000001V6.42555L3.707001 8.388831C3.800043 8.495456 3.873831 8.622191 3.924117 8.761745 3.974402 8.901299 4.000192 9.050914 4.000001 9.201977V13.802517C4.000001 16.973439 6.243001 19.553193 9.000001 19.553193 11.757001 19.553193 14.000001 16.973439 14.000001 13.802517V9.201977C14.000001 8.896041 14.105 8.603907 14.293 8.388831L16.000002 6.42555V5.751572ZM9.000001 .000896C9.619301 0 10.223458 .221039 10.728491 .633286 11.233523 1.045532 11.614339 1.628506 11.818001 2.301167H6.182001C6.385663 1.628506 6.766479 1.045532 7.271511 .633286 7.776544 .221039 8.380701 0 9.000001 .000896Z"/>
</svg>
