<svg xmlns="http://www.w3.org/2000/svg" xmlns:xlink="http://www.w3.org/1999/xlink" version="1.1" width="36pt" height="35.849977pt" viewBox="0 0 36 35.849977">
<path transform="matrix(1,0,0,-1,0,35.849977)" d="M33.300004 35.849977H2.7C1.2 35.849977 0 34.649976 0 33.299978V2.549973C0 1.199974 1.2-.000023 2.7-.000023H33.300004C34.800004-.000023 36 1.199974 36 2.549973V33.299978C36 34.649976 34.800004 35.849977 33.300004 35.849977ZM10.650001 5.249977H5.4V22.349976H10.650001V5.249977ZM8.099999 24.749978C6.449999 24.749978 4.95 26.099976 4.95 27.899975 4.95 29.699976 6.299999 31.049977 8.099999 31.049977 9.749999 31.049977 11.25 29.699976 11.25 27.899975 11.25 26.099976 9.749999 24.749978 8.099999 24.749978ZM30.75 5.399977H25.5V13.799974C25.5 15.749975 25.5 18.449975 22.650002 18.449975 19.800002 18.449975 19.5 16.199976 19.5 14.099976V5.549974H14.25V22.349976H19.199999V20.099976H19.349999C20.099999 21.449976 21.9 22.949975 24.449999 22.949975 29.849999 22.949975 30.900002 19.349976 30.900002 14.699974V5.399977H30.75Z" fill="#ffffff"/>
</svg>
