<svg xmlns="http://www.w3.org/2000/svg" xmlns:xlink="http://www.w3.org/1999/xlink" version="1.1" width="42pt" height="42pt" viewBox="0 0 42 42">
<path transform="matrix(1,0,0,-1,0,42)" d="M41.999784 20.903428 42 21C42 32.59798 32.59798 42 21 42 10.175659 42 1.264087 33.810464 .123364 23.289465L11.789953 17.5858C12.361664 18.381648 13.295299 18.9 14.35 18.9 15.242724 18.9 16.048712 18.528635 16.621907 17.931963L25.900208 25.58656C25.919802 27.309412 27.322506 28.7 29.05 28.7 30.657195 28.7 31.98326 27.496346 32.175935 25.941298L41.999784 20.903428ZM17.485726 16.051836 26.599429 23.570639C27.1769 22.856585 28.060132 22.4 29.05 22.4 30.191216 22.4 31.190688 23.006876 31.743296 23.91551L41.877496 18.718485C40.740404 8.193665 31.827069 0 21 0 9.40202 0 0 9.40202 0 21 0 21.041155 .000118 21.082285 .000355 21.123385L11.201646 15.647198C11.2559 13.955082 12.644702 12.599998 14.35 12.599998 16.089697 12.599998 17.5 14.010302 17.5 15.75 17.5 15.851812 17.495169 15.952497 17.485726 16.051836Z" fill="#605bff" fill-rule="evenodd"/>
</svg>
