<svg xmlns="http://www.w3.org/2000/svg" xmlns:xlink="http://www.w3.org/1999/xlink" version="1.1" width="85.51129pt" height="80.152957pt" viewBox="0 0 85.51129 80.152957">
<path transform="matrix(1,0,0,-1,3.321533,80.152957)" d="M80.152957 40.076478C80.152957 17.942849 62.210107 0 40.076478 0 17.94285 0 0 17.942849 0 40.076478 0 62.210107 17.94285 80.152957 40.076478 80.152957 62.210107 80.152957 80.152957 62.210107 80.152957 40.076478Z" fill="#fcfcff"/>
<path transform="matrix(1,0,0,-1,1.317627,58.54535)" d="M30.05736 7.113882 28.739729 4.41873 30.475844 3.569963 31.966509 4.799763 30.05736 7.113882ZM56.775014 29.155945 58.143964 31.825398 56.38805 32.72587 54.865865 31.470065 56.775014 29.155945ZM-1.31763 19.113438 28.739729 4.41873 31.37499 9.809036 1.31763 24.503745-1.31763 19.113438ZM31.966509 4.799763 58.684164 26.841826 54.865865 31.470065 28.14821 9.428003 31.966509 4.799763ZM55.406064 26.486493 81.45577 13.127666 84.19367 18.466572 58.143964 31.825398 55.406064 26.486493Z" fill="#605bff"/>
</svg>
