<svg xmlns="http://www.w3.org/2000/svg" xmlns:xlink="http://www.w3.org/1999/xlink" version="1.1" width="35.549757pt" height="39pt" viewBox="0 0 35.549757 39">
<path transform="matrix(1,0,0,-1,11.645185,20.768549)" d="M2.453128 4.40805C1.999147 4.4449 1.544153 4.349315 1.147698 4.133806 .751243 3.918297 .431797 3.592904 .231172 3.200216 .030547 2.807528-.041909 2.36584 .023286 1.932965 .088481 1.500089 .28829 1.096195 .59656 .774142 .904831 .45209 1.307202 .226886 1.751007 .128006 2.194812 .029126 2.659375 .061178 3.083891 .219965 3.508407 .378752 3.873097 .656878 4.130229 1.017938 4.387362 1.378999 4.524955 1.806172 4.525002 2.243549 4.537158 2.516306 4.493196 2.78869 4.395627 3.045126 4.298058 3.301562 4.148797 3.537021 3.956376 3.738044 3.763956 3.939066 3.532151 4.101708 3.274213 4.216673 3.016275 4.331637 2.737262 4.396669 2.453128 4.40805ZM9.86719 4.40805C9.41321 4.4449 8.958215 4.349315 8.561759 4.133806 8.165304 3.918297 7.845861 3.592904 7.645236 3.200216 7.444612 2.807528 7.372156 2.36584 7.43735 1.932965 7.502545 1.500089 7.702354 1.096195 8.010625 .774142 8.318896 .45209 8.721267 .226886 9.165071 .128006 9.608877 .029126 10.073438 .061178 10.497953 .219965 10.922469 .378752 11.28716 .656878 11.544292 1.017938 11.801425 1.378999 11.939019 1.806172 11.939066 2.243549 11.951222 2.516306 11.90726 2.78869 11.809691 3.045126 11.712122 3.301562 11.56286 3.537021 11.37044 3.738044 11.17802 3.939066 10.946213 4.101708 10.688274 4.216673 10.430336 4.331637 10.151325 4.396669 9.86719 4.40805Z" fill="#ffffff"/>
<path transform="matrix(1,0,0,-1,.001423,39)" d="M31.382832 39H4.164078C3.615882 38.99882 3.073299 38.89397 2.567322 38.691438 2.061346 38.488908 1.60189 38.192667 1.215201 37.819635 .828511 37.446599 .522163 37.004087 .313659 36.51737 .105154 36.03065-.001424 35.509267 .000014 34.983V8.618999C-.001424 8.092733 .105154 7.571348 .313659 7.084631 .522163 6.597916 .828511 6.155399 1.215201 5.782368 1.60189 5.409336 2.061346 5.113094 2.567322 4.910561 3.073299 4.708031 3.615882 4.60318 4.164078 4.602001H27.198456L26.121895 8.209499 28.721894 5.889 31.179707 3.704998 35.546895 0V34.983C35.548334 35.509267 35.441755 36.03065 35.23325 36.51737 35.024747 37.004087 34.7184 37.446599 34.331708 37.819635 33.94502 38.192667 33.485567 38.488908 32.979589 38.691438 32.473615 38.89397 31.931027 38.99882 31.382832 39ZM23.542206 13.532999C23.542206 13.532999 22.810956 14.371502 22.20158 15.112501 23.673935 15.445288 24.976246 16.267252 25.878146 17.432999 25.147252 16.966052 24.363608 16.58009 23.542206 16.2825 22.59726 15.895277 21.608965 15.613918 20.596892 15.444 18.857228 15.136528 17.073094 15.143141 15.335954 15.463501 14.316106 15.655067 13.316634 15.935736 12.350017 16.302 11.840494 16.490097 11.345053 16.711619 10.867203 16.965 10.806266 17.004 10.745329 17.0235 10.684391 17.0625 10.653834 17.077105 10.626302 17.096928 10.603141 17.120999 10.408284 17.222937 10.218493 17.333558 10.03439 17.4525 10.903656 16.311156 12.161006 15.497253 13.589079 15.151501 12.979704 14.4105 12.228142 13.532999 12.228142 13.532999 11.021532 13.501783 9.825428 13.755785 8.745105 14.27264 7.664782 14.789494 6.733364 15.553356 6.032828 16.496998 6.098773 20.450209 7.098916 24.337437 8.957828 27.8655 10.593672 29.098946 12.588084 29.814379 14.665642 29.913L14.868767 29.679C12.914164 29.214638 11.090178 28.342455 9.526578 27.1245 9.526578 27.1245 9.973454 27.358502 10.725017 27.69 12.185096 28.329838 13.74122 28.74444 15.335954 28.9185 15.44966 28.9411 15.565203 28.954148 15.681268 28.9575 17.042447 29.127749 18.41997 29.140843 19.784394 28.9965 21.930083 28.761252 24.007109 28.125309 25.898459 27.1245 24.414135 28.2844 22.69018 29.128514 20.840643 29.601L21.12502 29.913C23.202576 29.814379 25.196988 29.098946 26.832833 27.8655 28.691744 24.337437 29.691887 20.450209 29.757832 16.496998 29.05163 15.554296 28.11622 14.791494 27.032956 14.274925 25.94969 13.758356 24.751368 13.503664 23.542206 13.532999Z" fill="#ffffff"/>
</svg>
