<svg xmlns="http://www.w3.org/2000/svg" xmlns:xlink="http://www.w3.org/1999/xlink" version="1.1" width="17pt" height="22.037713pt" viewBox="0 0 17 22.037713">
<path transform="matrix(1,0,0,-1,0,22.037713)" d="M15.207074 14.55331C15.207074 13.170226 15.539024 12.355017 16.269513 11.415585 16.823094 10.723488 17 9.835075 17 8.871243 17 7.908519 16.712775 6.994596 16.13733 6.252589 15.383982 5.363068 14.321544 4.795195 13.237241 4.696482 11.665946 4.548967 10.093657 4.424746 8.500497 4.424746 6.906343 4.424746 5.335048 4.499056 3.763753 4.696482 2.678457 4.795195 1.616019 5.363068 .863666 6.252589 .28822 6.994596 0 7.908519 0 8.871243 0 9.835075 .177901 10.723488 .730488 11.415585 1.483835 12.355017 1.79392 13.170226 1.79392 14.55331V15.022472C1.79392 16.874718 2.21333 18.085886 3.076995 19.271546 4.361064 21.000678 6.419352 22.037713 8.455773 22.037713H8.54522C10.625373 22.037713 12.750248 20.950766 14.012452 19.147322 14.831394 17.986065 15.207074 16.825917 15.207074 15.022472V14.55331ZM5.573669 2.148384C5.573669 2.702948 6.035815 2.956938 6.463175 3.065634 6.963088 3.182091 10.009273 3.182091 10.509186 3.065634 10.936545 2.956938 11.398691 2.702948 11.398691 2.148384 11.373845 1.620438 11.092582 1.152386 10.703982 .855139 10.200094 .422579 9.608747 .148624 8.990565 .049911 8.648677 .00111 8.312752 0 7.98279 .049911 7.363614 .148624 6.772266 .422579 6.269372 .856249 5.879779 1.152386 5.598516 1.620438 5.573669 2.148384Z" fill="#030229" fill-rule="evenodd"/>
</svg>
