<svg xmlns="http://www.w3.org/2000/svg" xmlns:xlink="http://www.w3.org/1999/xlink" version="1.1" width="18pt" height="22.024834pt" viewBox="0 0 18 22.024834">
<path transform="matrix(1,0,0,-1,0,22.024834)" d="M4.81 22.024834H13.191C16.28 22.024834 18 20.064623 18 16.705838V5.330009C18 1.916161 16.28 0 13.191 0H4.81C1.77 0 0 1.916161 0 5.330009V16.705838C0 20.064623 1.77 22.024834 4.81 22.024834ZM5.079991 16.893048V16.90406H8.068992C8.499991 16.90406 8.849992 16.518626 8.849992 16.046193 8.849992 15.560546 8.499991 15.175111 8.068992 15.175111H5.079991C4.648992 15.175111 4.299992 15.560545 4.299992 16.03408 4.299992 16.507615 4.648992 16.893048 5.079991 16.893048ZM5.079988 10.197496H12.919988C13.349988 10.197496 13.699987 10.582931 13.699987 11.056465 13.699987 11.529999 13.349988 11.916534 12.919988 11.916534H5.079988C4.648988 11.916534 4.299988 11.529999 4.299988 11.056465 4.299988 10.582931 4.648988 10.197496 5.079988 10.197496ZM5.079991 5.164825H12.919991C13.318992 5.208874 13.619991 5.584398 13.619991 6.023792 13.619991 6.475303 13.318992 6.849725 12.919991 6.893775H5.079991C4.779992 6.926812 4.489992 6.772638 4.329991 6.486315 4.169991 6.211004 4.169991 5.847595 4.329991 5.561272 4.489992 5.285961 4.779992 5.120775 5.079991 5.164825Z" fill="#030229" fill-opacity=".4" fill-rule="evenodd"/>
</svg>
