<svg xmlns="http://www.w3.org/2000/svg" xmlns:xlink="http://www.w3.org/1999/xlink" version="1.1" width="19.539824pt" height="22.024834pt" viewBox="0 0 19.539824 22.024834">
<path transform="matrix(1,0,0,-1,.268055,22.024834)" d="M17.902346 9.272455C18.26003 9.063219 18.53596 8.732846 18.730132 8.402473 19.108256 7.719704 19.077597 6.88276 18.709692 6.144928L17.994322 4.823439C17.616198 4.118643 16.911047 3.678146 16.185458 3.678146 15.827772 3.678146 15.429209 3.788271 15.102182 4.008518 14.836473 4.19573 14.529886 4.261806 14.20286 4.261806 13.191122 4.261806 12.342897 3.347773 12.312239 2.257544 12.312239 .991116 11.372038 0 10.196787 0H8.806925C7.621454 0 6.681253 .991116 6.681253 2.257544 6.660814 3.347773 5.81259 4.261806 4.800852 4.261806 4.463606 4.261806 4.157019 4.19573 3.901529 4.008518 3.574503 3.788271 3.16572 3.678146 2.818254 3.678146 2.082445 3.678146 1.377295 4.118643 .99917 4.823439L.29402 6.144928C-.084104 6.860735-.104544 7.719704 .273581 8.402473 .437094 8.732846 .743681 9.063219 1.091147 9.272455 1.377295 9.426629 1.561247 9.679914 1.73498 9.97725 2.245958 10.924317 1.939371 12.168721 1.070707 12.730354 .05897 13.358062-.268057 14.756638 .314459 15.846868L.99917 17.146334C1.591906 18.236563 2.859133 18.621996 3.88109 17.983277 4.770193 17.454682 5.925005 17.807078 6.446203 18.743134 6.609716 19.051482 6.701693 19.381854 6.681253 19.712227 6.660814 20.14171 6.77323 20.54917 6.967402 20.879544 7.345526 21.562314 8.030237 22.00281 8.776266 22.024834H10.217226C10.973475 22.024834 11.658186 21.562314 12.03631 20.879544 12.220263 20.54917 12.342897 20.14171 12.312239 19.712227 12.2918 19.381854 12.383776 19.051482 12.547289 18.743134 13.068487 17.807078 14.223299 17.454682 15.122622 17.983277 16.13436 18.621996 17.411807 18.236563 17.994322 17.146334L18.679034 15.846868C19.271769 14.756638 18.944743 13.358062 17.922785 12.730354 17.054121 12.168721 16.747534 10.924317 17.268733 9.97725 17.432246 9.679914 17.616198 9.426629 17.902346 9.272455ZM6.609711 11.001399C6.609711 9.272449 7.907597 7.895897 9.51207 7.895897 11.116543 7.895897 12.38377 9.272449 12.38377 11.001399 12.38377 12.730348 11.116543 14.117912 9.51207 14.117912 7.907597 14.117912 6.609711 12.730348 6.609711 11.001399Z" fill="#030229" fill-opacity=".4" fill-rule="evenodd"/>
</svg>
