<svg xmlns="http://www.w3.org/2000/svg" xmlns:xlink="http://www.w3.org/1999/xlink" version="1.1" width="42pt" height="41pt" viewBox="0 0 42 41">
<path transform="matrix(1,0,0,-1,0,41)" d="M21 41C9.403126 41 0 31.820759 0 20.5 0 9.179241 9.403126 0 21 0 32.596876 0 42 9.179241 42 20.5 42 31.820759 32.596876 41 21 41ZM31.092186 25.547209C31.106249 25.332142 31.106249 25.107924 31.106249 24.88828 31.106249 18.17087 25.865626 10.433035 16.289063 10.433035 13.335938 10.433035 10.598437 11.270424 8.292187 12.71183 8.714062 12.666071 9.117188 12.647768 9.548438 12.647768 11.985938 12.647768 14.226562 13.453125 16.0125 14.81674 13.725 14.862499 11.803124 16.326785 11.146874 18.340178 11.948437 18.22578 12.670312 18.22578 13.495312 18.431696 12.317467 18.665295 11.258789 19.289755 10.499139 20.198985 9.739489 21.108212 9.325719 22.24613 9.328125 23.419419V23.483483C10.017187 23.103684 10.828125 22.870312 11.676563 22.838282 10.963325 23.302302 10.378397 23.930956 9.973646 24.6685 9.568895 25.406048 9.356829 26.229695 9.356251 27.066407 9.356251 28.013615 9.609376 28.87846 10.064063 29.628907 11.371418 28.057835 13.0028 26.7729 14.852179 25.857613 16.701556 24.942326 18.727538 24.417176 20.798439 24.316294 20.0625 27.771094 22.706252 30.566964 25.884377 30.566964 27.384377 30.566964 28.734375 29.953795 29.685936 28.9654 30.8625 29.18047 31.9875 29.610604 32.990625 30.187165 32.601564 29.011162 31.785939 28.018193 30.703125 27.391295 31.753125 27.501116 32.765626 27.78482 33.703126 28.182923 32.99531 27.167077 32.109376 26.265625 31.092186 25.547209Z" fill="#ffffff"/>
</svg>
