<svg xmlns="http://www.w3.org/2000/svg" xmlns:xlink="http://www.w3.org/1999/xlink" version="1.1" width="15.75pt" height="15.75pt" viewBox="0 0 15.75 15.75">
<path transform="matrix(1,0,0,-1,.75,16.5)" d="M15 6.432693C15 6.846906 14.664213 7.182693 14.25 7.182693 13.835787 7.182693 13.5 6.846906 13.5 6.432693H15ZM.75 6.432693C.75 6.846906 .414214 7.182693 0 7.182693-.414214 7.182693-.75 6.846906-.75 6.432693H.75ZM6.375 4.788462C6.375 4.374249 6.710786 4.038462 7.125 4.038462 7.539214 4.038462 7.875 4.374249 7.875 4.788462H6.375ZM7.125 15.75 7.65533 16.28033C7.514678 16.420983 7.323913 16.5 7.125 16.5 6.926088 16.5 6.735322 16.420983 6.59467 16.28033L7.125 15.75ZM3.306208 12.991869C3.013315 12.698976 3.013315 12.224102 3.306208 11.931209 3.599102 11.638315 4.073975 11.638315 4.366868 11.931209L3.306208 12.991869ZM9.883131 11.931209C10.176024 11.638315 10.650898 11.638315 10.943791 11.931209 11.236685 12.224102 11.236685 12.698976 10.943791 12.991869L9.883131 11.931209ZM13.5 6.432693V3.692307H15V6.432693H13.5ZM12.057692 2.25H2.192307V.75H12.057692V2.25ZM.75 3.692307V6.432693H-.75V3.692307H.75ZM2.192307 2.25C1.395743 2.25 .75 2.895743 .75 3.692307H-.75C-.75 2.067316 .567316 .75 2.192307 .75V2.25ZM13.5 3.692307C13.5 2.895743 12.854257 2.25 12.057692 2.25V.75C13.682683 .75 15 2.067315 15 3.692307H13.5ZM7.875 4.788462V15.75H6.375V4.788462H7.875ZM4.366868 11.931209 7.65533 15.21967 6.59467 16.28033 3.306208 12.991869 4.366868 11.931209ZM6.59467 15.21967 9.883131 11.931209 10.943791 12.991869 7.65533 16.28033 6.59467 15.21967Z" fill="#ffffff"/>
</svg>
