<svg xmlns="http://www.w3.org/2000/svg" xmlns:xlink="http://www.w3.org/1999/xlink" version="1.1" width="20pt" height="22.024834pt" viewBox="0 0 20 22.024834">
<path transform="matrix(1,0,0,-1,0,22.024834)" d="M5.33 22.024834H14.669C18.07 22.024834 19.99 19.90054 20 16.155217V5.869617C20 2.125397 18.07 0 14.669 0H5.33C1.929 0 0 2.125397 0 5.869617V16.155217C0 19.90054 1.929 22.024834 5.33 22.024834ZM10.048998 4.559143C10.479998 4.559143 10.838998 4.911541 10.878998 5.385075V16.606726C10.918998 16.94811 10.769998 17.290596 10.499998 17.476708 10.218998 17.663918 9.878998 17.663918 9.609998 17.476708 9.338998 17.290596 9.189998 16.94811 9.218998 16.606726V5.385075C9.269998 4.911541 9.628998 4.559143 10.048998 4.559143ZM14.649999 4.559141C15.069999 4.559141 15.428999 4.911537 15.48 5.385071V8.997145C15.508999 9.350643 15.359999 9.679914 15.088999 9.867126 14.819999 10.054337 14.479999 10.054337 14.199999 9.867126 13.928999 9.679914 13.779999 9.350643 13.819999 8.997145V5.385071C13.859999 4.911537 14.218999 4.559141 14.649999 4.559141ZM6.218988 5.385073C6.178988 4.911537 5.819988 4.559139 5.388988 4.559139 4.958988 4.559139 4.598988 4.911537 4.559988 5.385073V12.994652C4.529988 13.337138 4.678988 13.677422 4.949988 13.864633 5.218988 14.051844 5.559988 14.051844 5.829988 13.864633 6.098988 13.677422 6.249988 13.337138 6.218988 12.994652V5.385073Z" fill="#605bff" fill-rule="evenodd"/>
</svg>
